<?xml version="1.0"?>
<svg width="400" height="400" xmlns="http://www.w3.org/2000/svg" xmlns:svg="http://www.w3.org/2000/svg">
 <defs>
  <linearGradient id="linearGradient11072">
   <stop stop-color="#000000" id="stop11074" offset="0"/>
   <stop stop-color="#000000" stop-opacity="0" id="stop11076" offset="1"/>
  </linearGradient>
  <linearGradient id="linearGradient9024">
   <stop stop-color="#000000" stop-opacity="0.103093" id="stop9026" offset="0"/>
   <stop stop-color="#000000" stop-opacity="0" id="stop9028" offset="1"/>
  </linearGradient>
  <linearGradient id="linearGradient9016">
   <stop stop-color="#000000" id="stop9018" offset="0"/>
   <stop stop-color="#000000" stop-opacity="0.721649" offset="0.725" id="stop11102"/>
   <stop stop-color="#000000" stop-opacity="0" id="stop9020" offset="1"/>
  </linearGradient>
  <linearGradient id="linearGradient9008">
   <stop stop-color="#ffa646" id="stop9010" offset="0"/>
   <stop stop-color="#ffa646" stop-opacity="0" id="stop9012" offset="1"/>
  </linearGradient>
 </defs>
 <metadata id="metadata2193">image/svg+xml</metadata>
 <g>
  <title>Layer 1</title>
  <g display="inline" id="layer4"/>
  <g display="inline" id="layer2">
   <path fill="#cbcbcb" fill-rule="evenodd" stroke="#000000" stroke-width="6" stroke-linecap="round" stroke-linejoin="round" stroke-miterlimit="4" id="path3327" d="m319,55l-40,0l0,35l-25,0l0,-35l-40,0l0,35l-25,0l0,-35l-40,0l0,35l-25,0l0,-35l-39.9981,0.003601l0,59.994469l29.994194,30.009712l0.003906,161.992218l-15,18l0,25l205,0l0.022308,-24.955353l-15.022308,-18.045898l0,-161.998749l30,-30l0,-60z"/>
   <path fill="#3f3f3f" stroke="#000000" stroke-width="5" stroke-linecap="round" stroke-linejoin="round" stroke-miterlimit="4" id="rect8215" d="m201.001389,192.504044c-18.76445,0.306335 -33.767776,17.971481 -33.5,39.4375l0.15625,0l0,74.718735l67.78125,0l0,-74.906235l0.0625,0c0.003006,-0.329041 0.003998,-0.60849 0,-0.9375c-0.007004,-0.534698 -0.037201,-1.06459 -0.0625,-1.59375c-0.991272,-20.714813 -16.140442,-37.017456 -34.4375,-36.71875z"/>
  </g>
 </g>
</svg>